<svg width="1920" height="340" viewBox="0 0 1920 340" fill="none" xmlns="http://www.w3.org/2000/svg" aria-hidden="true">
  <rect width="1920" height="340" fill="#f9f8f6"/>
  <g>
    <polygon points="0,340 300,160 460,250 700,60 820,120 1040,40 1150,80 1340,190 1500,80 1750,190 1920,69 1920,340"
      fill="#274037"/>
    <polygon points="0,340 180,260 390,190 550,310 780,160 1000,230 1100,190 1250,239 1480,170 1720,278 1920,340"
      fill="#bda167" fill-opacity="0.25"/>
    <polygon points="0,340 120,310 220,260 350,325 420,270 600,230 760,320 950,135 1250,340 1920,340"
      fill="#495057" fill-opacity="0.46"/>
    <polygon points="0,340 120,285 180,320 350,230 470,340"
      fill="#bda167" fill-opacity="0.5"/>
    <polygon points="1330,320 1400,260 1510,330 1740,225 1920,340"
      fill="#bda167" fill-opacity="0.39"/>
  </g>
</svg>
